<svg xmlns="http://www.w3.org/2000/svg" width="48" height="48" viewBox="0 0 48 48" fill="none">
<path d="M2.4 0.5H45.6C46.1039 0.5 46.5872 0.700178 46.9435 1.0565C47.2998 1.41282 47.5 1.89609 47.5 2.4V45.6C47.5 46.1039 47.2998 46.5872 46.9435 46.9435C46.5872 47.2998 46.1039 47.5 45.6 47.5H2.4C1.89609 47.5 1.41282 47.2998 1.0565 46.9435C0.700178 46.5872 0.5 46.1039 0.5 45.6V2.4C0.5 1.89609 0.700178 1.41282 1.0565 1.0565C1.41282 0.700178 1.89609 0.5 2.4 0.5Z" fill="white" stroke="#FCB0AA"/>
<path d="M37.4347 24.2866C37.4515 23.3226 37.3522 22.36 37.139 21.4197H23.9751V26.6231H31.7024C31.5557 27.5355 31.2261 28.4088 30.7335 29.1906C30.2408 29.9724 29.5952 30.6466 28.8355 31.1726L28.8096 31.3464L32.972 34.5715L33.2601 34.6004C34.6382 33.2685 35.7217 31.6626 36.4408 29.8861C37.1598 28.1096 37.4984 26.2021 37.4347 24.2866Z" fill="#4285F4"/>
<path d="M24.0207 37.9946C27.436 38.0913 30.7586 36.8761 33.3057 34.5989L28.8858 31.1711C27.451 32.1329 25.7519 32.6231 24.0253 32.5733C22.2524 32.5628 20.5277 31.9943 19.0961 30.9484C17.6645 29.9025 16.5985 28.4324 16.0495 26.7466L15.8849 26.7603L11.5564 30.1134L11.5 30.2658C12.6656 32.5888 14.4544 34.5417 16.6664 35.9064C18.8783 37.271 21.4263 37.9935 24.0253 37.9931" fill="#34A853"/>
<path d="M16.0451 26.771C15.7386 25.8786 15.5806 24.9421 15.5772 23.9986C15.5846 23.0563 15.7389 22.1209 16.0344 21.2262L16.0268 21.0402L11.6388 17.6353L11.4955 17.7039C10.5122 19.6562 10 21.8118 10 23.9978C10 26.1838 10.5122 28.3394 11.4955 30.2917L16.0451 26.771Z" fill="#FBBC05"/>
<path d="M23.9949 15.4223C26.0003 15.3917 27.9394 16.1403 29.4041 17.5103L33.3531 13.6467C30.8228 11.2665 27.4685 9.95978 23.9949 10.0009C21.3998 10.0018 18.856 10.7251 16.6487 12.0899C14.4414 13.4547 12.6576 15.407 11.4971 17.7283L16.0207 21.249C16.572 19.5649 17.6384 18.0965 19.0692 17.0511C20.5 16.0056 22.2229 15.4359 23.9949 15.4223Z" fill="#EB4335"/>
</svg>