<svg id="Layer_1" data-name="Layer 1" xmlns="http://www.w3.org/2000/svg" xmlns:xlink="http://www.w3.org/1999/xlink" viewBox="0 0 404.46 404.46"><defs><style>.cls-1{fill:url(#linear-gradient);}</style><linearGradient id="linear-gradient" x1="314.63" y1="21.54" x2="69.38" y2="409.45" gradientUnits="userSpaceOnUse"><stop offset="0" stop-color="#fcea10"/><stop offset="1" stop-color="#e30613"/></linearGradient></defs><path class="cls-1" d="M338.69,154.71q-.68-5.52-1.79-10.9c-.34-1.64-.7-3.28-1.1-4.91-.13-.53-.26-1.07-.4-1.59s-.2-.79-.31-1.19c-.21-.78-.42-1.55-.65-2.31-.1-.41-.22-.82-.35-1.22-.17-.6-.35-1.19-.54-1.78a2.17,2.17,0,0,0-.07-.24,137,137,0,0,0-17.93-36.88c-.4-.58-.8-1.16-1.21-1.73q-1.33-1.89-2.72-3.72c-.5-.65-1-1.29-1.49-1.92a138.2,138.2,0,0,0-9.52-10.84l-.09-.1a7.44,7.44,0,0,0-11.76,1.49l-26.9,46.59a8.91,8.91,0,0,0,3.26,12.18l14.16,8.17,18.88,10.9,13,7.52a10.94,10.94,0,0,1,0,18.94l-14.32,8.27-36,20.77a15.51,15.51,0,0,1-1.74.85,14.85,14.85,0,0,1-18.57-6.29l-8.85-15.33-4-6.91-1.58-2.73a16.36,16.36,0,0,1,0-16.34l5-8.75,6.3-10.9L248,125.73l21.86-37.87a30.47,30.47,0,0,0-13.15-42.7c-.45-.21-.91-.42-1.37-.61a136.59,136.59,0,0,0-38.07-9.9c-1.61-.18-3.23-.34-4.85-.46l-1.74-.12c-2.92-.18-5.86-.28-8.82-.28a138.39,138.39,0,0,0-31.14,3.53l-1.63.39q-2.12.51-4.23,1.11l-1.41.4a136.46,136.46,0,0,0-37.85,17.57c-.6.4-1.19.79-1.77,1.19l-1.72,1.21h0l-1.19.86c-.74.53-1.48,1.07-2.21,1.62l-1.06.82c-.57.43-1.12.87-1.67,1.31q-3.26,2.58-6.33,5.37a138.6,138.6,0,0,0-28.27,35.4l-.39.72q-1.16,2.1-2.24,4.24A136.36,136.36,0,0,0,69,134.42a7.28,7.28,0,0,0,.44,5.14l0,0c0,.12.11.22.16.32a7.56,7.56,0,0,0,.55.87,7.43,7.43,0,0,0,6,3H129.9a8.91,8.91,0,0,0,8.91-8.92V81.65a10.94,10.94,0,0,1,16.41-9.47l13.24,7.64,36.84,21.27.27.17.05,0,.12.07a14.86,14.86,0,0,1,5.33,20.23l-8.84,15.33-4,6.91-1.58,2.73a16.34,16.34,0,0,1-14.15,8.18H95.21A30.52,30.52,0,0,0,65.5,178.36h0a30.46,30.46,0,0,0-.77,6.79v155A30.47,30.47,0,0,0,95.2,370.66h36.19a7.43,7.43,0,0,0,7.43-7.43V294.4h0q4.53,2.33,9.25,4.34,5.07,2.13,10.35,3.89c1.09.36,2.2.71,3.3,1.05l34.36,59.55A14.87,14.87,0,0,0,209,370.66h61.89a7.43,7.43,0,0,0,6.44-11.15L233.7,284.16l-.26-.43L212.93,248.2a5.84,5.84,0,0,0-.48-.74h0a8.91,8.91,0,0,0-9.91-3.32l0,0a8.33,8.33,0,0,0-1.77.77l-13.54,7.81-18.89,10.91-13.1,7.57a10.86,10.86,0,0,1-11,0c-.26-.15-.5-.32-.74-.48a10,10,0,0,1-1.53-1.29h0a10.76,10.76,0,0,1-3.16-7.69V204.31a14.68,14.68,0,0,1,1.22-5.89,14.87,14.87,0,0,1,13.65-9h28.49a16.34,16.34,0,0,1,14.15,8.18l5.07,8.77,6.3,10.9L217.92,235,239.81,273a30.5,30.5,0,0,0,44.58,9.21l.62-.46a138.7,138.7,0,0,0,35.78-40.21l.88-1.51c.28-.49.56-1,.82-1.48a136.6,136.6,0,0,0,16.11-49.06c.18-1.45.35-2.91.49-4.37.07-.74.13-1.47.19-2.21s.11-1.47.17-2.22c.18-2.95.28-5.94.28-8.94A138.16,138.16,0,0,0,338.69,154.71Z"/></svg>